<svg width="16" height="16" viewBox="0 0 16 16" version="1.1" xmlns="http://www.w3.org/2000/svg" xmlns:xlink="http://www.w3.org/1999/xlink">
<title>Shape</title>
<desc>Created using Figma</desc>
<g id="Canvas" transform="translate(-7473 877)">
<g id="Shape">
<use xlink:href="#path0_fill" transform="translate(7473 -877)" fill="#767676"/>
</g>
</g>
<defs>
<path id="path0_fill" fill-rule="evenodd" d="M 5.51709 3.00269C 5.41211 3.07935 5.28467 3.11933 5.1499 3.11933C 5.03809 3.12 4.93115 3.09168 4.83887 3.03986C 4.78271 3.00831 4.73193 2.96796 4.68945 2.91999C 4.5918 2.81031 4.54639 2.66913 4.56348 2.52833C 4.58105 2.38752 4.65918 2.25904 4.78125 2.172L 7.63232 0.112004C 7.64844 0.1023 7.66602 0.09406 7.68408 0.0873462L 7.7334 0.0653735L 7.77783 0.0419971L 7.78516 0.0373584C 7.85352 0.0126391 7.92676 4.87078e-06 8 4.87078e-06C 8.07666 -0.000300305 8.15186 0.0137378 8.22217 0.0413257L 8.2583 0.0613452L 8.26709 0.0653735L 8.31641 0.0873462C 8.33447 0.09406 8.35156 0.102361 8.36768 0.112004L 11.2183 2.172C 11.3398 2.2594 11.4175 2.38764 11.4346 2.52808C 11.4521 2.66858 11.4072 2.80951 11.3101 2.91932C 11.1978 3.0467 11.0283 3.12031 10.8496 3.11933C 10.7163 3.12006 10.5874 3.07886 10.4829 3.00269L 9.02148 1.94666L 8.58936 1.63465L 8.58936 10.828C 8.58936 11.1207 8.32471 11.36 8 11.36C 7.67529 11.36 7.41113 11.1207 7.41113 10.8273L 7.41113 1.63404L 6.97852 1.94666L 5.51709 3.00269ZM 13.1309 5.66535L 15.4111 5.66535C 15.7334 5.66388 15.9966 5.90162 16 6.19733L 16 15.468C 16 15.7614 15.7354 16 15.4111 16L 0.588867 16C 0.264648 16 0 15.7614 0 15.468L 0 6.19733C 0.00341797 5.90162 0.266602 5.66388 0.588867 5.66535L 3.43945 5.66535C 3.76172 5.66388 4.02539 5.90162 4.02832 6.19733C 4.02832 6.49067 3.76367 6.73005 3.43945 6.73005L 1.17822 6.73005L 1.17822 14.9354L 14.8218 14.9354L 14.8218 6.72937L 13.1309 6.72937C 12.8057 6.72937 12.542 6.49067 12.542 6.19733C 12.5449 5.90162 12.8081 5.66388 13.1309 5.66535Z"/>
</defs>
</svg>
