<svg width="334" height="175" viewBox="0 0 334 175" version="1.1" xmlns="http://www.w3.org/2000/svg" xmlns:xlink="http://www.w3.org/1999/xlink">
<title>bg</title>
<desc>Created using Figma</desc>
<g id="Canvas" transform="translate(-1685 -2095)">
<g id="bg" filter="url(#filter0_d)">
<use xlink:href="#path0_fill" transform="translate(1689 2097)" fill="#FFFFFF"/>
<mask id="mask0_outline_ins">
<use xlink:href="#path0_fill" fill="white" transform="translate(1689 2097)"/>
</mask>
<g mask="url(#mask0_outline_ins)">
<use xlink:href="#path1_stroke_2x" transform="translate(1689 2097)" fill="#484848" fill-opacity="0.2"/>
</g>
</g>
</g>
<defs>
<filter id="filter0_d" filterUnits="userSpaceOnUse" x="1685" y="2095" width="334" height="175" color-interpolation-filters="sRGB">
<feFlood flood-opacity="0" result="BackgroundImageFix"/>
<feColorMatrix in="SourceAlpha" type="matrix" values="0 0 0 0 0 0 0 0 0 0 0 0 0 0 0 0 0 0 255 0"/>
<feOffset dx="0" dy="2"/>
<feGaussianBlur stdDeviation="2"/>
<feColorMatrix type="matrix" values="0 0 0 0 0.282353 0 0 0 0 0.282353 0 0 0 0 0.282353 0 0 0 0.08 0"/>
<feBlend mode="normal" in2="BackgroundImageFix" result="effect1_dropShadow"/>
<feBlend mode="normal" in="SourceGraphic" in2="effect1_dropShadow" result="shape"/>
</filter>
<path id="path0_fill" fill-rule="evenodd" d="M 0 4C 0 1.79086 1.79086 0 4 0L 322 0C 324.209 0 326 1.79086 326 4L 326 163C 326 165.209 324.209 167 322 167L 3.99999 167C 1.79085 167 0 165.209 0 163L 0 4Z"/>
<path id="path1_stroke_2x" d="M 4 1L 322 1L 322 -1L 4 -1L 4 1ZM 325 4L 325 163L 327 163L 327 4L 325 4ZM 322 166L 3.99999 166L 3.99999 168L 322 168L 322 166ZM 1 163L 1 4L -1 4L -1 163L 1 163ZM 3.99999 166C 2.34314 166 1 164.657 1 163L -1 163C -1 165.761 1.23857 168 3.99999 168L 3.99999 166ZM 325 163C 325 164.657 323.657 166 322 166L 322 168C 324.761 168 327 165.761 327 163L 325 163ZM 322 1C 323.657 1 325 2.34314 325 4L 327 4C 327 1.23858 324.761 -1 322 -1L 322 1ZM 4 -1C 1.23858 -1 -1 1.23857 -1 4L 1 4C 1 2.34314 2.34314 1 4 1L 4 -1Z"/>
</defs>
</svg>
